<svg xmlns:xlink="http://www.w3.org/1999/xlink" style="shape-rendering:geometricPrecision; text-rendering:geometricPrecision; image-rendering:optimizeQuality; fill-rule:evenodd; clip-rule:evenodd" height="1506px" width="2162px" version="1.1" xmlns="http://www.w3.org/2000/svg">
<g><path d="M 987.5,-0.5 C 1038.5,-0.5 1089.5,-0.5 1140.5,-0.5C 1141.58,0.593804 1142.25,1.92714 1142.5,3.5C 1117.35,100.748 1092.52,198.081 1068,295.5C 1067.1,299.768 1065.6,303.768 1063.5,307.5C 1036.71,205.671 1010.88,103.671 986,1.5C 986.717,0.955796 987.217,0.28913 987.5,-0.5 Z" fill="#fefefe" style="opacity:1"></path></g>
<g><path d="M 2161.5,669.5 C 2161.5,760.167 2161.5,850.833 2161.5,941.5C 2156.89,979.556 2140.89,1012.06 2113.5,1039C 2072.07,1072.08 2027.74,1076.41 1980.5,1052C 1949.58,1031.72 1929.42,1003.55 1920,967.5C 1917.47,957.643 1915.8,947.643 1915,937.5C 1914.33,849.833 1914.33,762.167 1915,674.5C 1918.56,626.19 1940.06,588.357 1979.5,561C 2034.11,533.351 2082.61,541.518 2125,585.5C 2144.82,609.6 2156.49,637.267 2160,668.5C 2160.38,669.056 2160.88,669.389 2161.5,669.5 Z M 2037.5,602.5 C 2049.84,603.224 2060.84,607.391 2070.5,615C 2090.24,632.323 2101.08,654.156 2103,680.5C 2103.67,764.167 2103.67,847.833 2103,931.5C 2101.46,957.735 2090.96,979.569 2071.5,997C 2049.69,1014.42 2027.69,1014.75 2005.5,998C 1986.05,980.924 1975.21,959.424 1973,933.5C 1972.33,847.833 1972.33,762.167 1973,676.5C 1975.53,652.947 1985.36,633.113 2002.5,617C 2012.65,608.249 2024.32,603.416 2037.5,602.5 Z" fill="#fefefe" style="opacity:1"></path></g>
<g><path d="M -0.5,551.5 C -0.5,549.833 -0.5,548.167 -0.5,546.5C 21.2317,545.851 42.7317,546.518 64,548.5C 89.1898,663.288 114.69,777.954 140.5,892.5C 140.461,893.756 140.961,894.756 142,895.5C 142.47,894.423 142.303,893.423 141.5,892.5C 143.067,891.319 143.901,889.653 144,887.5C 169,774.167 194,660.833 219,547.5C 219.5,547 220,546.5 220.5,546C 240.833,545.333 261.167,545.333 281.5,546C 282.617,549.073 282.784,552.24 282,555.5C 243.845,725.788 205.845,896.122 168,1066.5C 150.577,1067.49 133.077,1067.83 115.5,1067.5C 98.3356,988.841 81.169,910.175 64,831.5C 42.2354,738.677 21.2354,645.677 1,552.5C 0.617425,551.944 0.117425,551.611 -0.5,551.5 Z" fill="#fefefe" style="opacity:1"></path></g>
<g><path d="M 673.5,548.5 C 740.071,548.169 806.571,548.502 873,549.5C 873.667,569.167 873.667,588.833 873,608.5C 872.5,609 872,609.5 871.5,610C 826.833,610.333 782.167,610.667 737.5,611C 737,611.5 736.5,612 736,612.5C 735.333,666.833 735.333,721.167 736,775.5C 736.75,776.126 737.584,776.626 738.5,777C 778.499,777.5 818.499,777.667 858.5,777.5C 858.833,797.844 858.5,818.178 857.5,838.5C 817.541,839.328 777.541,839.828 737.5,840C 737,840.5 736.5,841 736,841.5C 735.333,895.833 735.333,950.167 736,1004.5C 736.903,1005.7 738.069,1006.53 739.5,1007C 784.165,1007.5 828.832,1007.67 873.5,1007.5C 873.5,1027.5 873.5,1047.5 873.5,1067.5C 806.833,1067.5 740.167,1067.5 673.5,1067.5C 673.5,894.5 673.5,721.5 673.5,548.5 Z" fill="#fefefe" style="opacity:1"></path></g>
<g><path d="M 1267.5,548.5 C 1313.5,548.333 1359.5,548.5 1405.5,549C 1421.48,551.326 1436.15,556.993 1449.5,566C 1488.66,596.988 1508.32,637.654 1508.5,688C 1508.53,722.895 1498.37,754.395 1478,782.5C 1470.95,790.045 1464.12,797.712 1457.5,805.5C 1479.98,892.744 1502.65,979.911 1525.5,1067C 1503.5,1067.5 1481.5,1067.67 1459.5,1067.5C 1438.85,988.557 1418.35,909.557 1398,830.5C 1397.17,829.667 1396.33,828.833 1395.5,828C 1374.83,827.333 1354.17,827.333 1333.5,828C 1332.67,828.833 1331.83,829.667 1331,830.5C 1330.5,909.499 1330.33,988.499 1330.5,1067.5C 1309.5,1067.5 1288.5,1067.5 1267.5,1067.5C 1267.5,894.5 1267.5,721.5 1267.5,548.5 Z M 1333.5,611.5 C 1354.84,611.333 1376.17,611.5 1397.5,612C 1408.74,614.571 1417.91,620.405 1425,629.5C 1452.64,669.01 1452.3,708.343 1424,747.5C 1416.15,756.508 1406.32,762.008 1394.5,764C 1373.83,764.667 1353.17,764.667 1332.5,764C 1332,763.5 1331.5,763 1331,762.5C 1330.33,713.167 1330.33,663.833 1331,614.5C 1332.04,613.627 1332.88,612.627 1333.5,611.5 Z" fill="#fefefe" style="opacity:1"></path></g>
<g><path d="M 140.5,892.5 C 140.833,892.5 141.167,892.5 141.5,892.5C 142.303,893.423 142.47,894.423 142,895.5C 140.961,894.756 140.461,893.756 140.5,892.5 Z" fill="#dddddd" style="opacity:1"></path></g>
<g><path d="M 602.5,1505.5 C 596.833,1505.5 591.167,1505.5 585.5,1505.5C 577.5,1503.09 569.834,1499.59 562.5,1495C 551.112,1482.85 545.612,1468.35 546,1451.5C 545.333,1422.5 545.333,1393.5 546,1364.5C 545.434,1347.85 550.934,1333.68 562.5,1322C 583.167,1309.33 603.833,1309.33 624.5,1322C 633.83,1330.83 639.33,1341.66 641,1354.5C 642.087,1361.46 642.587,1368.46 642.5,1375.5C 633.5,1375.5 624.5,1375.5 615.5,1375.5C 616.111,1365.15 613.944,1355.48 609,1346.5C 600.796,1337.79 591.629,1336.63 581.5,1343C 576.351,1348.43 573.518,1354.93 573,1362.5C 572.333,1392.5 572.333,1422.5 573,1452.5C 572.725,1463.46 577.225,1471.63 586.5,1477C 602.963,1479.58 612.463,1472.41 615,1455.5C 615.499,1449.51 615.666,1443.51 615.5,1437.5C 624.833,1437.5 634.167,1437.5 643.5,1437.5C 643.269,1448.6 642.103,1459.6 640,1470.5C 634.648,1490.02 622.148,1501.69 602.5,1505.5 Z" fill="#fefefe" style="opacity:1"></path></g>
<g><path d="M 1040.5,1505.5 C 1034.83,1505.5 1029.17,1505.5 1023.5,1505.5C 1014.98,1503.07 1006.98,1499.24 999.5,1494C 987.975,1480.76 982.808,1465.26 984,1447.5C 983.333,1421.17 983.333,1394.83 984,1368.5C 983.351,1353.08 987.351,1339.08 996,1326.5C 1005.94,1316.74 1017.94,1312.07 1032,1312.5C 1061.88,1314.38 1077.88,1330.38 1080,1360.5C 1080.5,1365.49 1080.67,1370.49 1080.5,1375.5C 1071.5,1375.5 1062.5,1375.5 1053.5,1375.5C 1054.29,1365.62 1052.46,1356.29 1048,1347.5C 1037.33,1335.5 1026.67,1335.5 1016,1347.5C 1012.92,1352.39 1011.26,1357.73 1011,1363.5C 1010.33,1392.5 1010.33,1421.5 1011,1450.5C 1009.96,1464.29 1015.79,1473.46 1028.5,1478C 1032.24,1478.61 1035.9,1478.28 1039.5,1477C 1047.13,1472.24 1051.63,1465.4 1053,1456.5C 1053.35,1450.14 1053.85,1443.81 1054.5,1437.5C 1063.5,1437.5 1072.5,1437.5 1081.5,1437.5C 1082.5,1454.35 1079.33,1470.35 1072,1485.5C 1064.05,1496.38 1053.55,1503.05 1040.5,1505.5 Z" fill="#fefefe" style="opacity:1"></path></g>
<g><path d="M 1213.5,1505.5 C 1207.83,1505.5 1202.17,1505.5 1196.5,1505.5C 1187.56,1503.34 1179.23,1499.5 1171.5,1494C 1163.01,1484.87 1158.17,1474.04 1157,1461.5C 1156.33,1426.17 1156.33,1390.83 1157,1355.5C 1160.67,1327.66 1176.51,1313.32 1204.5,1312.5C 1235.8,1313.64 1251.97,1329.97 1253,1361.5C 1253.67,1392.83 1253.67,1424.17 1253,1455.5C 1252.75,1471.49 1246.92,1484.99 1235.5,1496C 1228.39,1500.06 1221.06,1503.23 1213.5,1505.5 Z M 1203.5,1338.5 C 1217.11,1339.61 1224.61,1346.94 1226,1360.5C 1226.67,1392.83 1226.67,1425.17 1226,1457.5C 1222.97,1473.59 1213.47,1480.09 1197.5,1477C 1186.85,1471.54 1182.02,1462.71 1183,1450.5C 1182.08,1419.14 1182.41,1387.81 1184,1356.5C 1186.91,1346.42 1193.41,1340.42 1203.5,1338.5 Z" fill="#fefefe" style="opacity:1"></path></g>
<g><path d="M 118.5,1431.5 C 125.332,1393.01 131.332,1354.35 136.5,1315.5C 145.173,1315.33 153.84,1315.5 162.5,1316C 152.07,1377.41 141.904,1438.91 132,1500.5C 127.748,1501.15 123.415,1501.49 119,1501.5C 114.411,1501.46 110.077,1500.8 106,1499.5C 98.9589,1458.63 91.2922,1417.97 83,1377.5C 75.1401,1418.32 67.8068,1459.32 61,1500.5C 56.748,1501.15 52.4147,1501.49 48,1501.5C 43.4106,1501.46 39.0772,1500.8 35,1499.5C 24.0817,1438.25 12.9151,1377.08 1.5,1316C 10.4938,1315.5 19.4938,1315.33 28.5,1315.5C 34.2653,1354.76 41.0986,1393.76 49,1432.5C 57.0188,1393.73 64.1855,1354.73 70.5,1315.5C 78.5,1315.5 86.5,1315.5 94.5,1315.5C 101.783,1353.86 109.283,1392.2 117,1430.5C 117.383,1431.06 117.883,1431.39 118.5,1431.5 Z" fill="#fefefe" style="opacity:1"></path></g>
<g><path d="M 253.5,1315.5 C 266.167,1315.5 278.833,1315.5 291.5,1315.5C 303.056,1377.45 315.056,1439.28 327.5,1501C 318.149,1501.83 308.816,1501.67 299.5,1500.5C 297.067,1487.83 294.567,1475.17 292,1462.5C 285.577,1461.84 279.077,1461.51 272.5,1461.5C 265.923,1461.51 259.423,1461.84 253,1462.5C 250.433,1475.17 247.933,1487.83 245.5,1500.5C 236.859,1501.5 228.192,1501.83 219.5,1501.5C 230.705,1439.48 242.038,1377.48 253.5,1315.5 Z M 271.5,1354.5 C 272.117,1354.61 272.617,1354.94 273,1355.5C 278.448,1382.02 282.948,1408.52 286.5,1435C 277.167,1435.67 267.833,1435.67 258.5,1435C 257.941,1434.28 257.608,1433.44 257.5,1432.5C 261.958,1406.42 266.624,1380.42 271.5,1354.5 Z" fill="#fefefe" style="opacity:1"></path></g>
<g><path d="M 379.5,1315.5 C 411.833,1315.5 444.167,1315.5 476.5,1315.5C 476.5,1324.17 476.5,1332.83 476.5,1341.5C 464.919,1341.18 453.419,1341.51 442,1342.5C 441.5,1395.5 441.333,1448.5 441.5,1501.5C 432.5,1501.5 423.5,1501.5 414.5,1501.5C 414.667,1448.5 414.5,1395.5 414,1342.5C 402.581,1341.51 391.081,1341.18 379.5,1341.5C 379.5,1332.83 379.5,1324.17 379.5,1315.5 Z" fill="#fefefe" style="opacity:1"></path></g>
<g><path d="M 718.5,1315.5 C 727.5,1315.5 736.5,1315.5 745.5,1315.5C 745.333,1341.17 745.5,1366.84 746,1392.5C 752.589,1393.16 759.256,1393.49 766,1393.5C 772.744,1393.49 779.411,1393.16 786,1392.5C 786.5,1366.84 786.667,1341.17 786.5,1315.5C 795.5,1315.5 804.5,1315.5 813.5,1315.5C 813.5,1377.5 813.5,1439.5 813.5,1501.5C 804.5,1501.5 795.5,1501.5 786.5,1501.5C 786.667,1474.5 786.5,1447.5 786,1420.5C 779.411,1419.84 772.744,1419.51 766,1419.5C 759.256,1419.51 752.589,1419.84 746,1420.5C 745.5,1447.5 745.333,1474.5 745.5,1501.5C 736.5,1501.5 727.5,1501.5 718.5,1501.5C 718.5,1439.5 718.5,1377.5 718.5,1315.5 Z" fill="#fefefe" style="opacity:1"></path></g>
<g><path d="M 1395.5,1428.5 C 1395.71,1429.92 1396.21,1431.26 1397,1432.5C 1397.48,1431.55 1397.65,1430.55 1397.5,1429.5C 1405.88,1391.6 1413.88,1353.6 1421.5,1315.5C 1434.83,1315.5 1448.17,1315.5 1461.5,1315.5C 1461.5,1377.5 1461.5,1439.5 1461.5,1501.5C 1453.17,1501.5 1444.83,1501.5 1436.5,1501.5C 1436.99,1457.02 1436.49,1412.69 1435,1368.5C 1424.06,1412.6 1413.89,1456.93 1404.5,1501.5C 1399.17,1501.5 1393.83,1501.5 1388.5,1501.5C 1378.9,1456.98 1368.73,1412.65 1358,1368.5C 1356.51,1412.69 1356.01,1457.02 1356.5,1501.5C 1348.17,1501.5 1339.83,1501.5 1331.5,1501.5C 1331.5,1439.5 1331.5,1377.5 1331.5,1315.5C 1344.83,1315.5 1358.17,1315.5 1371.5,1315.5C 1379.34,1353.21 1387.34,1390.87 1395.5,1428.5 Z" fill="#fefefe" style="opacity:1"></path></g>
<g><path d="M 1541.5,1315.5 C 1560.5,1315.33 1579.5,1315.5 1598.5,1316C 1622.07,1319.24 1635.24,1332.74 1638,1356.5C 1639.33,1370.69 1638.33,1384.69 1635,1398.5C 1630.31,1411.86 1621.14,1420.36 1607.5,1424C 1594.64,1425.08 1581.8,1425.91 1569,1426.5C 1568.5,1451.5 1568.33,1476.5 1568.5,1501.5C 1559.5,1501.5 1550.5,1501.5 1541.5,1501.5C 1541.5,1439.5 1541.5,1377.5 1541.5,1315.5 Z M 1569.5,1341.5 C 1605.86,1337.47 1618.69,1353.13 1608,1388.5C 1603.33,1396.09 1596.5,1399.92 1587.5,1400C 1581.25,1400.81 1575.08,1400.64 1569,1399.5C 1568.18,1380.09 1568.35,1360.76 1569.5,1341.5 Z" fill="#fefefe" style="opacity:1"></path></g>
<g><path d="M 1732.5,1315.5 C 1745.17,1315.5 1757.83,1315.5 1770.5,1315.5C 1782.63,1377.48 1794.63,1439.48 1806.5,1501.5C 1797.17,1501.5 1787.83,1501.5 1778.5,1501.5C 1776.64,1488.36 1774.14,1475.36 1771,1462.5C 1764.58,1461.84 1758.08,1461.51 1751.5,1461.5C 1744.92,1461.51 1738.42,1461.84 1732,1462.5C 1729.62,1475.48 1727.45,1488.48 1725.5,1501.5C 1716.48,1501.83 1707.48,1501.5 1698.5,1500.5C 1710.35,1438.93 1721.68,1377.26 1732.5,1315.5 Z M 1751.5,1355.5 C 1751.83,1355.5 1752.17,1355.5 1752.5,1355.5C 1757.88,1381.94 1762.21,1408.44 1765.5,1435C 1756.17,1435.67 1746.83,1435.67 1737.5,1435C 1740.93,1409.23 1745.1,1383.4 1750,1357.5C 1750.72,1356.96 1751.22,1356.29 1751.5,1355.5 Z" fill="#fefefe" style="opacity:1"></path></g>
<g><path d="M 1905.5,1380.5 C 1905.63,1379.62 1905.3,1378.96 1904.5,1378.5C 1903.23,1379.26 1903.23,1379.92 1904.5,1380.5C 1903.51,1420.76 1903.17,1461.09 1903.5,1501.5C 1895.17,1501.5 1886.83,1501.5 1878.5,1501.5C 1878.5,1439.5 1878.5,1377.5 1878.5,1315.5C 1887.75,1315.18 1896.92,1315.52 1906,1316.5C 1920.41,1353.64 1935.07,1390.64 1950,1427.5C 1951.49,1390.31 1951.99,1352.98 1951.5,1315.5C 1960.17,1315.5 1968.83,1315.5 1977.5,1315.5C 1977.5,1377.5 1977.5,1439.5 1977.5,1501.5C 1969.14,1501.83 1960.81,1501.5 1952.5,1500.5C 1936.83,1460.47 1921.16,1420.47 1905.5,1380.5 Z" fill="#fefefe" style="opacity:1"></path></g>
<g><path d="M 2050.5,1315.5 C 2060.52,1315.17 2070.52,1315.5 2080.5,1316.5C 2087.75,1341.88 2095.75,1366.88 2104.5,1391.5C 2106.65,1388.57 2108.15,1385.23 2109,1381.5C 2115.73,1359.8 2122.57,1338.13 2129.5,1316.5C 2139.48,1315.33 2149.48,1315.17 2159.5,1316C 2145.28,1353.33 2131.44,1390.83 2118,1428.5C 2117.5,1452.83 2117.33,1477.16 2117.5,1501.5C 2108.5,1501.5 2099.5,1501.5 2090.5,1501.5C 2090.67,1476.83 2090.5,1452.16 2090,1427.5C 2076.53,1390.26 2063.36,1352.92 2050.5,1315.5 Z" fill="#fefefe" style="opacity:1"></path></g>
<g><path d="M 1752.5,1355.5 C 1752.17,1355.5 1751.83,1355.5 1751.5,1355.5C 1750.22,1354.61 1750.22,1353.61 1751.5,1352.5C 1752.39,1353.32 1752.72,1354.32 1752.5,1355.5 Z" fill="#d8d8d8" style="opacity:1"></path></g>
<g><path d="M 1905.5,1380.5 C 1905.17,1380.5 1904.83,1380.5 1904.5,1380.5C 1903.23,1379.92 1903.23,1379.26 1904.5,1378.5C 1905.3,1378.96 1905.63,1379.62 1905.5,1380.5 Z" fill="#e6e6e6" style="opacity:1"></path></g>
<g><path d="M 1395.5,1428.5 C 1396.17,1428.83 1396.83,1429.17 1397.5,1429.5C 1397.65,1430.55 1397.48,1431.55 1397,1432.5C 1396.21,1431.26 1395.71,1429.92 1395.5,1428.5 Z" fill="#dedede" style="opacity:1"></path></g>
<g><path d="M 118.5,1431.5 C 119.713,1432.5 119.546,1433.5 118,1434.5C 117.53,1433.42 117.697,1432.42 118.5,1431.5 Z" fill="#e4e4e4" style="opacity:1"></path></g>
</svg>
